<?xml version="1.0" encoding="UTF-8"?>
<svg id="Layer_1" data-name="Layer 1" xmlns="http://www.w3.org/2000/svg" viewBox="0 0 47.27 16.57">
  <path d="M18.51,0s-5.79,10.27-12.8,14.34C22.34,7.43,33.24,4.66,43.6,5.28" fill="none"/>
  <path d="M10.63,14.05C15.42,10.72,21.15,1.63,21.15,1.63c0,0-9.91,15.6-2.18,9.45v.09c.05,1.15.84,1.1,1.48.24.33-.48.83-1.66.13-1.82-.73-.18-1.37.67-1.47,1.07-.18.71,1.33.44,1.83-.55L24.97,1.38c-.44,1.18-7.37,14.74-2.84,8.85-.38,1.03.84,1.12,1.41-.11.65-1.41-.97-.83-1.2-.31,0,0,.84-.12,1.23.93.06.16.64-.07.87-.99.24-.98,1.09-1.18,1.09-1.18-1.2.13-1.73,3.21.05,1.08,0,0,2.83-5.27,2.82-6.45,0-1.8-2.83,6.4-2.91,6.99.08-1.25,2.27-2.87,1.42-1.27-1.05,1.98,4.11-.15,4.72-1.04" fill="none"/>
  <path d="M27.23,9.31c.54-.49,1.28-1.18,1.45-1.85-.08.04-.36.42-.47.73-.32.86.29.76.76.27h0c.65-.77.39-.88.93-1.25.13-.09.56-.34.69-.25.05.07-.4.5-.52.84-.35,1.06.91-.23,1.28-.51,6.86.19-11.13,4.63-5.46,5.79,3.23.66,20.09-4.19,21.31-8.01C48.5,1.05,23.93.65,10.82,7.48,6.48,9.74-1.14,14.59.14,16.06c2.5,2.85,33.5-7.2,35.21-7.41" fill="none"/>
</svg>